<svg fill="none" height="43" viewBox="0 0 35 43" width="35" xmlns="http://www.w3.org/2000/svg">
    <rect fill="#DD3E46" height="35" rx="17.5" transform="rotate(-180 35 38)" width="35" x="35"
        y="38" />
    <path
        d="M18.2 13C18.3333 13 18.4467 13.0467 18.54 13.14C18.6333 13.2333 18.68 13.3467 18.68 13.48V22.92C18.68 23.0533 18.6333 23.1667 18.54 23.26C18.4467 23.3533 18.3333 23.4 18.2 23.4H16.54C16.3933 23.4 16.28 23.3533 16.2 23.26C16.1067 23.1667 16.06 23.0533 16.06 22.92V13.48C16.06 13.3467 16.1067 13.2333 16.2 13.14C16.28 13.0467 16.3933 13 16.54 13H18.2ZM18.28 25.12C18.4267 25.12 18.5467 25.16 18.64 25.24C18.72 25.3333 18.76 25.4533 18.76 25.6V27.04C18.76 27.1733 18.72 27.2867 18.64 27.38C18.5467 27.4733 18.4267 27.52 18.28 27.52H16.46C16.3133 27.52 16.1933 27.4733 16.1 27.38C16.0067 27.2867 15.96 27.1733 15.96 27.04V25.6C15.96 25.4533 16.0067 25.3333 16.1 25.24C16.1933 25.16 16.3133 25.12 16.46 25.12H18.28Z"
        fill="white" />
</svg>
