<svg fill="none" height="51" viewBox="0 0 49 51" width="49" xmlns="http://www.w3.org/2000/svg">
    <rect fill="#F1F8FE" height="49.858" rx="24" width="48" x="0.5" y="0.716064" />
    <g clip-path="url(#clip0_463_7381)">
        <path
            d="M34.9084 35.7768L29.0111 21.6233C28.6841 20.8381 28.5181 20.0097 28.5181 19.161V15.4198C28.5181 15.0169 28.6775 14.6382 28.9668 14.3532C29.3196 14.0059 29.5141 13.544 29.5141 13.0527V12.5226C29.5141 12.2264 29.27 11.9863 28.9694 11.9863H21.3645C21.0636 11.9863 20.8198 12.2264 20.8198 12.5226V13.0527C20.8198 13.544 21.014 14.0059 21.3668 14.3532C21.6562 14.6382 21.8155 15.0169 21.8155 15.42V19.161C21.8155 20.0097 21.6498 20.8381 21.3225 21.6233L19.7021 25.5124C19.7015 25.5139 19.7008 25.5154 19.7002 25.5168L15.4253 35.7768C15.0829 36.5987 15.1785 37.5299 15.681 38.2676C16.1836 39.0054 17.0221 39.4458 17.9242 39.4458H32.4094C33.3115 39.4458 34.1503 39.0054 34.6528 38.2676C35.1552 37.5297 35.2507 36.5987 34.9084 35.7768ZM22.3304 22.0303C22.7117 21.1155 22.9049 20.1501 22.9049 19.161V15.4198C22.9049 14.7306 22.6323 14.0824 22.1372 13.5949C21.9917 13.4516 21.9108 13.2613 21.9091 13.059H28.4247C28.423 13.2613 28.3422 13.4514 28.1964 13.5949C27.7015 14.0824 27.4287 14.7303 27.4287 15.4198V19.1608C27.4287 20.1499 27.6222 21.1152 28.0032 22.0301L29.3183 25.1864H21.0153L22.3304 22.0303ZM33.7479 37.6701C33.4437 38.1169 32.9558 38.3732 32.4094 38.3732H17.9242C17.3781 38.3732 16.8902 38.1169 16.5857 37.6701C16.3561 37.333 16.2685 36.9421 16.328 36.5566H17.2255C17.5261 36.5566 17.7702 36.3163 17.7702 36.0203C17.7702 35.724 17.5261 35.484 17.2255 35.484H16.7251L17.3506 33.9823H18.2693C18.5702 33.9823 18.814 33.742 18.814 33.4459C18.814 33.1497 18.5702 32.9096 18.2693 32.9096H17.7976L18.4232 31.4079H19.3679C19.6687 31.4079 19.9125 31.1676 19.9125 30.8716C19.9125 30.5754 19.6687 30.3353 19.3679 30.3353H18.8702L19.4959 28.8336H20.4662C20.767 28.8336 21.0108 28.5933 21.0108 28.2973C21.0108 28.0011 20.767 27.761 20.4662 27.761H19.9427L20.5685 26.2593H29.7651L33.9005 36.1841C34.1077 36.6817 34.0522 37.2234 33.7479 37.6701Z"
            fill="#2293F0" />
        <path
            d="M32.2192 35.8104C32.1051 35.5362 31.7872 35.405 31.5086 35.5171C31.2302 35.6294 31.0967 35.9424 31.2106 36.2166L31.2136 36.2233C31.3 36.4309 31.5032 36.5566 31.718 36.5566C31.7867 36.5566 31.8565 36.5439 31.9242 36.5166C32.2026 36.4043 32.336 36.0911 32.222 35.8171L32.2192 35.8104Z"
            fill="#2293F0" />
        <path
            d="M31.4495 33.9627L29.4982 29.2812C29.3842 29.0072 29.066 28.876 28.7874 28.9885C28.509 29.1008 28.376 29.4142 28.4901 29.6883L30.4413 34.3697C30.5277 34.5773 30.731 34.7026 30.9457 34.7026C31.0145 34.7026 31.0845 34.6898 31.1522 34.6624C31.4305 34.5501 31.5638 34.2367 31.4495 33.9627Z"
            fill="#2293F0" />
    </g>
    <defs>
        <clipPath id="clip0_463_7381">
            <rect fill="white" height="28" transform="translate(10.5 11.7161)" width="30" />
        </clipPath>
    </defs>
</svg>
