<svg fill="none" height="31" viewBox="0 0 30 31" width="30" xmlns="http://www.w3.org/2000/svg">
    <path
        d="M18.2406 22.25L20.9469 26.9375H19.1437L16.4375 22.25H12.5719L9.86562 26.9375H8.0625L10.7688 22.25H5.90625C5.69905 22.25 5.50034 22.1677 5.35382 22.0212C5.20731 21.8747 5.125 21.676 5.125 21.4688V8.1875H3.5625C3.3553 8.1875 3.15659 8.10519 3.01007 7.95868C2.86356 7.81216 2.78125 7.61345 2.78125 7.40625C2.78125 7.19905 2.86356 7.00034 3.01007 6.85382C3.15659 6.70731 3.3553 6.625 3.5625 6.625H25.4375C25.6447 6.625 25.8434 6.70731 25.9899 6.85382C26.1364 7.00034 26.2188 7.19905 26.2188 7.40625C26.2188 7.61345 26.1364 7.81216 25.9899 7.95868C25.8434 8.10519 25.6447 8.1875 25.4375 8.1875H23.875V21.4688C23.875 21.676 23.7927 21.8747 23.6462 22.0212C23.4997 22.1677 23.301 22.25 23.0938 22.25H18.2406ZM22.3125 8.1875H6.6875V20.6875H22.3125V8.1875ZM10.5938 14.4375C10.801 14.4375 10.9997 14.5198 11.1462 14.6663C11.2927 14.8128 11.375 15.0115 11.375 15.2188V16.7812C11.375 16.9885 11.2927 17.1872 11.1462 17.3337C10.9997 17.4802 10.801 17.5625 10.5938 17.5625C10.3865 17.5625 10.1878 17.4802 10.0413 17.3337C9.89481 17.1872 9.8125 16.9885 9.8125 16.7812V15.2188C9.8125 15.0115 9.89481 14.8128 10.0413 14.6663C10.1878 14.5198 10.3865 14.4375 10.5938 14.4375ZM14.5 12.875C14.7072 12.875 14.9059 12.9573 15.0524 13.1038C15.1989 13.2503 15.2812 13.449 15.2812 13.6562V16.7812C15.2812 16.9885 15.1989 17.1872 15.0524 17.3337C14.9059 17.4802 14.7072 17.5625 14.5 17.5625C14.2928 17.5625 14.0941 17.4802 13.9476 17.3337C13.8011 17.1872 13.7188 16.9885 13.7188 16.7812V13.6562C13.7188 13.449 13.8011 13.2503 13.9476 13.1038C14.0941 12.9573 14.2928 12.875 14.5 12.875ZM18.4062 11.3125C18.6135 11.3125 18.8122 11.3948 18.9587 11.5413C19.1052 11.6878 19.1875 11.8865 19.1875 12.0938V16.7812C19.1875 16.9885 19.1052 17.1872 18.9587 17.3337C18.8122 17.4802 18.6135 17.5625 18.4062 17.5625C18.199 17.5625 18.0003 17.4802 17.8538 17.3337C17.7073 17.1872 17.625 16.9885 17.625 16.7812V12.0938C17.625 11.8865 17.7073 11.6878 17.8538 11.5413C18.0003 11.3948 18.199 11.3125 18.4062 11.3125Z"
        fill="#879AC1" />
</svg>
