<svg fill="none" height="12" viewBox="0 0 7 12" width="7" xmlns="http://www.w3.org/2000/svg">
    <path
        d="M4.44876 5.96219L0.182323 10.051C0.0648466 10.1633 0.000220785 10.3135 0.0002208 10.4736C0.000220814 10.6338 0.0648466 10.7839 0.182323 10.8964L0.556172 11.2545C0.673463 11.3672 0.830253 11.4292 0.997335 11.4292C1.16442 11.4292 1.32102 11.3672 1.43841 11.2545L6.51828 6.38639C6.63612 6.27354 6.70066 6.12275 6.70019 5.96245C6.70066 5.80144 6.63622 5.65083 6.51827 5.53789L1.44313 0.674486C1.32575 0.561815 1.16915 0.499793 1.00197 0.499793C0.834889 0.499793 0.678284 0.561815 0.560807 0.674486L0.187051 1.03258C-0.0561541 1.26565 -0.056154 1.64507 0.187051 1.87805L4.44876 5.96219Z"
        fill="#397ED5" />
</svg>
