<svg fill="none" height="27" viewBox="0 0 28 27" width="28" xmlns="http://www.w3.org/2000/svg">
    <g clip-path="url(#clip0_559_9118)">
        <path
            d="M23.8275 1.98496C24.2666 1.98496 24.6878 2.15941 24.9983 2.46994C25.3089 2.78048 25.4833 3.20165 25.4833 3.64081V16.8876C25.4833 17.3268 25.3089 17.748 24.9983 18.0585C24.6878 18.369 24.2666 18.5435 23.8275 18.5435H7.95445C7.0762 18.5437 6.23399 18.8927 5.61307 19.5138L2.30136 22.8255V3.64081C2.30136 3.20165 2.47582 2.78048 2.78635 2.46994C3.09688 2.15941 3.51806 1.98496 3.95722 1.98496H23.8275ZM3.95722 0.329102C3.0789 0.329102 2.23655 0.678013 1.61548 1.29908C0.994419 1.92014 0.645508 2.76249 0.645508 3.64081L0.645508 24.8242C0.645543 24.988 0.694178 25.1481 0.785257 25.2843C0.876337 25.4204 1.00577 25.5265 1.15717 25.5891C1.30856 25.6517 1.47513 25.668 1.63577 25.6358C1.79641 25.6037 1.94391 25.5247 2.05961 25.4087L6.78376 20.6845C7.09422 20.374 7.51533 20.1994 7.95445 20.1994H23.8275C24.7058 20.1994 25.5481 19.8504 26.1692 19.2294C26.7903 18.6083 27.1392 17.766 27.1392 16.8876V3.64081C27.1392 2.76249 26.7903 1.92014 26.1692 1.29908C25.5481 0.678013 24.7058 0.329102 23.8275 0.329102L3.95722 0.329102Z"
            fill="white" />
        <path
            d="M5.61328 6.12456C5.61328 5.90498 5.70051 5.69439 5.85578 5.53913C6.01104 5.38386 6.22163 5.29663 6.44121 5.29663H21.3439C21.5635 5.29663 21.7741 5.38386 21.9293 5.53913C22.0846 5.69439 22.1718 5.90498 22.1718 6.12456C22.1718 6.34414 22.0846 6.55472 21.9293 6.70999C21.7741 6.86526 21.5635 6.95249 21.3439 6.95249H6.44121C6.22163 6.95249 6.01104 6.86526 5.85578 6.70999C5.70051 6.55472 5.61328 6.34414 5.61328 6.12456ZM5.61328 10.2642C5.61328 10.0446 5.70051 9.83403 5.85578 9.67876C6.01104 9.52349 6.22163 9.43627 6.44121 9.43627H21.3439C21.5635 9.43627 21.7741 9.52349 21.9293 9.67876C22.0846 9.83403 22.1718 10.0446 22.1718 10.2642C22.1718 10.4838 22.0846 10.6944 21.9293 10.8496C21.7741 11.0049 21.5635 11.0921 21.3439 11.0921H6.44121C6.22163 11.0921 6.01104 11.0049 5.85578 10.8496C5.70051 10.6944 5.61328 10.4838 5.61328 10.2642ZM5.61328 14.4038C5.61328 14.1842 5.70051 13.9737 5.85578 13.8184C6.01104 13.6631 6.22163 13.5759 6.44121 13.5759H14.7205C14.9401 13.5759 15.1506 13.6631 15.3059 13.8184C15.4612 13.9737 15.5484 14.1842 15.5484 14.4038C15.5484 14.6234 15.4612 14.834 15.3059 14.9893C15.1506 15.1445 14.9401 15.2318 14.7205 15.2318H6.44121C6.22163 15.2318 6.01104 15.1445 5.85578 14.9893C5.70051 14.834 5.61328 14.6234 5.61328 14.4038Z"
            fill="white" />
    </g>
    <defs>
        <clipPath id="clip0_559_9118">
            <rect fill="white" height="26.4937" transform="translate(0.645508 0.329102)"
                width="26.4937" />
        </clipPath>
    </defs>
</svg>
