<svg fill="none" height="51" viewBox="0 0 49 51" width="49" xmlns="http://www.w3.org/2000/svg">
    <rect fill="#F1F8FE" height="49.858" rx="24" width="48" x="0.5" y="0.573975" />
    <path
        d="M34.0427 18.4765C35.1913 18.4752 36.2925 18.0253 37.1046 17.2256C37.9168 16.4259 38.3736 15.3416 38.3749 14.2106V13.1972C38.3749 13.1479 38.3651 13.0991 38.3459 13.0535C38.3268 13.0079 38.2987 12.9665 38.2633 12.9317C38.2279 12.8968 38.1858 12.8692 38.1395 12.8503C38.0933 12.8314 38.0437 12.8217 37.9936 12.8218H12.8541C12.804 12.8217 12.7544 12.8314 12.7081 12.8503C12.6618 12.8692 12.6198 12.8968 12.5844 12.9317C12.549 12.9665 12.5209 13.0079 12.5017 13.0535C12.4826 13.0991 12.4727 13.1479 12.4728 13.1972V14.2106C12.474 15.3416 12.9309 16.4259 13.743 17.2256C14.5552 18.0253 15.6564 18.4752 16.805 18.4765H23.2451V20.9049H17.6623C16.9107 20.9028 16.183 21.1645 15.6097 21.643C15.0364 22.1216 14.655 22.7856 14.5341 23.5159L12.4778 35.7116C12.4687 35.7654 12.4717 35.8204 12.4864 35.873C12.5012 35.9255 12.5274 35.9742 12.5632 36.0158C12.599 36.0574 12.6435 36.0907 12.6938 36.1136C12.744 36.1365 12.7987 36.1484 12.8541 36.1484H14.1493V37.9504C14.1493 37.9997 14.1591 38.0485 14.1783 38.0941C14.1974 38.1397 14.2255 38.1811 14.2609 38.2159C14.2963 38.2508 14.3384 38.2784 14.3846 38.2973C14.4309 38.3162 14.4805 38.3258 14.5306 38.3258H36.3175C36.3676 38.3258 36.4172 38.3162 36.4634 38.2973C36.5097 38.2784 36.5518 38.2508 36.5872 38.2159C36.6226 38.1811 36.6507 38.1397 36.6698 38.0941C36.689 38.0485 36.6988 37.9997 36.6988 37.9504V36.1484H37.994C38.0494 36.1484 38.1041 36.1365 38.1543 36.1136C38.2045 36.0907 38.2491 36.0574 38.2849 36.0158C38.3207 35.9742 38.3469 35.9255 38.3617 35.873C38.3764 35.8204 38.3794 35.7654 38.3703 35.7116L36.314 23.5159C36.193 22.7855 35.8116 22.1214 35.2382 21.6429C34.6648 21.1644 33.937 20.9027 33.1854 20.9049H27.6037V18.4765H34.0427ZM13.2353 14.2106V13.5726H37.6123V14.2106C37.6115 15.1426 37.2351 16.0361 36.5659 16.6951C35.8966 17.3541 34.9892 17.7247 34.0427 17.7257H16.805C15.8585 17.7247 14.951 17.3541 14.2818 16.6951C13.6126 16.0361 13.2362 15.1426 13.2353 14.2106ZM35.9358 37.5752H14.911V36.1484H35.9358V37.5752ZM35.5613 23.6389L37.5439 35.3975H13.3037L15.2864 23.6389C15.3783 23.0841 15.6679 22.5798 16.1033 22.2164C16.5388 21.8529 17.0915 21.6542 17.6623 21.6558H33.1854C33.7562 21.6542 34.3089 21.8529 34.7443 22.2164C35.1798 22.5798 35.4694 23.0841 35.5613 23.6389ZM26.8411 20.9049H24.0077V18.4765H26.8422L26.8411 20.9049Z"
        fill="#2293F0" />
    <path
        d="M19.8262 28.5267C19.8261 29.6166 20.1543 30.682 20.7692 31.5882C21.3841 32.4944 22.2581 33.2007 23.2807 33.6178C24.3033 34.0349 25.4285 34.144 26.5141 33.9314C27.5997 33.7188 28.5969 33.194 29.3796 32.4234C30.1622 31.6528 30.6953 30.6709 30.9112 29.602C31.1272 28.5331 31.0163 27.4252 30.5928 26.4183C30.1692 25.4114 29.4519 24.5508 28.5316 23.9453C27.6113 23.3398 26.5293 23.0166 25.4225 23.0166C23.9388 23.0182 22.5164 23.5993 21.4672 24.6323C20.4181 25.6653 19.8279 27.0658 19.8262 28.5267ZM30.2405 28.1513H29.6017C29.5006 28.1513 29.4036 28.1909 29.3321 28.2613C29.2606 28.3317 29.2204 28.4272 29.2204 28.5267C29.2204 28.6263 29.2606 28.7218 29.3321 28.7922C29.4036 28.8626 29.5006 28.9022 29.6017 28.9022H30.2396C30.1475 30.0303 29.6506 31.0893 28.8378 31.8896C28.0251 32.6899 26.9495 33.1792 25.8037 33.2699V32.6418C25.8037 32.5422 25.7636 32.4467 25.6921 32.3763C25.6206 32.3059 25.5236 32.2664 25.4225 32.2664C25.3213 32.2664 25.2244 32.3059 25.1529 32.3763C25.0814 32.4467 25.0412 32.5422 25.0412 32.6418V33.2699C23.8954 33.1792 22.8199 32.6899 22.0071 31.8896C21.1943 31.0893 20.6974 30.0303 20.6053 28.9022H21.2432C21.3443 28.9022 21.4413 28.8626 21.5128 28.7922C21.5843 28.7218 21.6245 28.6263 21.6245 28.5267C21.6245 28.4272 21.5843 28.3317 21.5128 28.2613C21.4413 28.1909 21.3443 28.1513 21.2432 28.1513H20.6053C20.6975 27.0232 21.1944 25.9642 22.0072 25.1639C22.82 24.3636 23.8955 23.8743 25.0412 23.7835V24.4117C25.0412 24.5112 25.0814 24.6067 25.1529 24.6771C25.2244 24.7475 25.3213 24.7871 25.4225 24.7871C25.5236 24.7871 25.6206 24.7475 25.6921 24.6771C25.7636 24.6067 25.8037 24.5112 25.8037 24.4117V23.7835C26.9495 23.8743 28.025 24.3636 28.8377 25.1639C29.6505 25.9642 30.1475 27.0232 30.2396 28.1513H30.2405Z"
        fill="#2293F0" />
    <path
        d="M25.9218 27.5047C25.7666 27.4296 25.5962 27.3902 25.4233 27.3893C25.1949 27.3893 24.9716 27.4559 24.7818 27.5809C24.5919 27.7058 24.4439 27.8834 24.3565 28.0911C24.2691 28.2989 24.2462 28.5275 24.2907 28.7481C24.3353 28.9686 24.4453 29.1712 24.6068 29.3302C24.7683 29.4892 24.974 29.5975 25.198 29.6414C25.422 29.6853 25.6542 29.6628 25.8652 29.5767C26.0762 29.4906 26.2565 29.3449 26.3834 29.1579C26.5103 28.971 26.578 28.7511 26.578 28.5262C26.5771 28.356 26.5368 28.1883 26.4604 28.0356L27.9622 26.5567C27.9976 26.5218 28.0256 26.4805 28.0448 26.4349C28.0639 26.3894 28.0738 26.3406 28.0738 26.2913C28.0738 26.242 28.0639 26.1932 28.0448 26.1477C28.0256 26.1022 27.9976 26.0608 27.9622 26.0259C27.9268 25.9911 27.8847 25.9634 27.8385 25.9446C27.7923 25.9257 27.7427 25.916 27.6926 25.916C27.6426 25.916 27.593 25.9257 27.5468 25.9446C27.5006 25.9634 27.4585 25.9911 27.4231 26.0259L25.9218 27.5047ZM25.4233 28.9133C25.3457 28.9133 25.2699 28.8906 25.2054 28.8482C25.1409 28.8057 25.0906 28.7454 25.061 28.6749C25.0313 28.6043 25.0235 28.5267 25.0386 28.4518C25.0538 28.3769 25.0911 28.3081 25.146 28.2541C25.2008 28.2001 25.2707 28.1633 25.3468 28.1484C25.4228 28.1335 25.5017 28.1411 25.5734 28.1704C25.645 28.1996 25.7063 28.2491 25.7494 28.3126C25.7925 28.3761 25.8155 28.4507 25.8155 28.5271C25.8155 28.6295 25.7741 28.7277 25.7006 28.8002C25.627 28.8726 25.5273 28.9133 25.4233 28.9133Z"
        fill="#2293F0" />
    <path
        d="M20.2079 14.4209H16.2426C16.1925 14.4209 16.143 14.4306 16.0967 14.4495C16.0504 14.4683 16.0084 14.496 15.973 14.5309C15.9376 14.5657 15.9095 14.6071 15.8904 14.6527C15.8712 14.6982 15.8613 14.747 15.8613 14.7963C15.8613 14.8456 15.8712 14.8944 15.8904 14.94C15.9095 14.9855 15.9376 15.0269 15.973 15.0618C16.0084 15.0966 16.0504 15.1243 16.0967 15.1432C16.143 15.162 16.1925 15.1717 16.2426 15.1717H20.2079C20.309 15.1717 20.406 15.1322 20.4775 15.0618C20.549 14.9914 20.5892 14.8959 20.5892 14.7963C20.5892 14.6968 20.549 14.6013 20.4775 14.5309C20.406 14.4605 20.309 14.4209 20.2079 14.4209Z"
        fill="#2293F0" />
    <path
        d="M23.0033 14.4209H21.8365C21.7353 14.4209 21.6383 14.4605 21.5668 14.5309C21.4953 14.6013 21.4551 14.6968 21.4551 14.7963C21.4551 14.8959 21.4953 14.9914 21.5668 15.0618C21.6383 15.1322 21.7353 15.1717 21.8365 15.1717H23.0033C23.0534 15.1717 23.103 15.162 23.1493 15.1432C23.1955 15.1243 23.2376 15.0966 23.273 15.0618C23.3084 15.0269 23.3365 14.9855 23.3557 14.94C23.3748 14.8944 23.3847 14.8456 23.3847 14.7963C23.3847 14.747 23.3748 14.6982 23.3557 14.6527C23.3365 14.6071 23.3084 14.5657 23.273 14.5309C23.2376 14.496 23.1955 14.4683 23.1493 14.4495C23.103 14.4306 23.0534 14.4209 23.0033 14.4209Z"
        fill="#2293F0" />
</svg>
