<svg fill="none" height="46" viewBox="0 0 46 46" width="46" xmlns="http://www.w3.org/2000/svg">
    <path clip-rule="evenodd"
        d="M45.0246 23.0123C45.0246 28.3503 43.1245 33.2446 39.9638 37.0556C39.9623 33.1365 38.7385 28.2462 34.7989 22.1814C35.3047 16.3033 34.6118 14.745 29.9368 14.0461C29.9088 13.8975 29.8792 13.7534 29.8481 13.6138C29.3941 9.41015 27.6427 7.25423 22.6486 9.91104C22.4944 9.89532 22.3783 9.84431 22.3087 9.74159C19.3625 5.3914 11.4018 7.58621 11.0841 12.3021C10.9062 14.9419 12.247 16.425 13.3882 17.6873C14.143 18.5222 14.8105 19.2605 14.8933 20.1731C14.9065 20.1592 14.9198 20.1453 14.9332 20.1314C14.9315 20.8256 14.5508 21.6334 13.5516 22.6793C9.26972 27.1613 8.66311 32.3758 9.34397 34.3861L9.34538 34.3851L9.3459 34.3866C10.2809 33.7163 12.4763 32.5256 14.8368 31.7934C15.752 31.5142 16.6972 31.3069 17.6098 31.2334C21.3836 30.9292 24.6008 32.9109 22.8416 41.5462C22.6033 42.7161 22.3047 43.8669 21.9627 45C10.293 44.4522 1 34.8175 1 23.0123C1 10.8552 10.8552 1 23.0123 1C35.1693 1 45.0246 10.8552 45.0246 23.0123Z"
        fill="white" fill-rule="evenodd" />
    <path
        d="M39.9638 37.0556L39.4638 37.0558L39.4643 38.441L40.3486 37.3748L39.9638 37.0556ZM34.7989 22.1814L34.3007 22.1385L34.286 22.3097L34.3796 22.4538L34.7989 22.1814ZM29.9368 14.0461L29.4455 14.1387L29.5113 14.488L29.8629 14.5406L29.9368 14.0461ZM29.8481 13.6138L29.351 13.6675L29.354 13.6953L29.3601 13.7226L29.8481 13.6138ZM22.6486 9.91104L22.5979 10.4085L22.7492 10.4239L22.8835 10.3525L22.6486 9.91104ZM22.3087 9.74159L21.8947 10.022L21.8947 10.022L22.3087 9.74159ZM11.0841 12.3021L10.5852 12.2685L11.0841 12.3021ZM13.3882 17.6873L13.7591 17.3519L13.3882 17.6873ZM14.8933 20.1731L14.3953 20.2182L14.4951 21.3183L15.2558 20.5174L14.8933 20.1731ZM14.9332 20.1314L15.4331 20.1326L15.4361 18.8879L14.5729 19.7846L14.9332 20.1314ZM13.5516 22.6793L13.1901 22.3339H13.1901L13.5516 22.6793ZM9.34397 34.3861L8.87039 34.5465L9.0869 35.1857L9.63537 34.7924L9.34397 34.3861ZM9.34538 34.3851L9.81931 34.2257L9.60374 33.5845L9.05398 33.9787L9.34538 34.3851ZM9.3459 34.3866L8.87197 34.5459L9.0875 35.1871L9.63724 34.793L9.3459 34.3866ZM14.8368 31.7934L14.6909 31.3151L14.6887 31.3158L14.8368 31.7934ZM17.6098 31.2334L17.5697 30.735L17.6098 31.2334ZM22.8416 41.5462L23.3315 41.6461L22.8416 41.5462ZM21.9627 45L21.9393 45.4994L22.3287 45.5177L22.4414 45.1445L21.9627 45ZM40.3486 37.3748C43.581 33.4773 45.5246 28.4711 45.5246 23.0123H44.5246C44.5246 28.2295 42.668 33.0118 39.5789 36.7364L40.3486 37.3748ZM34.3796 22.4538C38.2762 28.4524 39.4623 33.2495 39.4638 37.0558L40.4638 37.0554C40.4622 33.0234 39.2008 28.0401 35.2182 21.909L34.3796 22.4538ZM29.8629 14.5406C32.1848 14.8877 33.3074 15.4264 33.8769 16.4201C34.1717 16.9347 34.347 17.6183 34.4111 18.5626C34.4753 19.5069 34.4266 20.6756 34.3007 22.1385L35.297 22.2243C35.424 20.7481 35.4784 19.5177 35.4088 18.4948C35.3393 17.4719 35.144 16.6201 34.7445 15.9229C33.9252 14.4933 32.3639 13.9034 30.0108 13.5516L29.8629 14.5406ZM29.3601 13.7226C29.39 13.8566 29.4185 13.9952 29.4455 14.1387L30.4282 13.9535C30.3992 13.7997 30.3685 13.6502 30.3362 13.5051L29.3601 13.7226ZM22.8835 10.3525C25.3482 9.04124 26.8028 9.03588 27.6771 9.6081C28.5879 10.2043 29.125 11.5752 29.351 13.6675L30.3453 13.5601C30.1172 11.4487 29.5516 9.63989 28.2247 8.7714C26.8612 7.87895 24.9431 8.12403 22.4138 9.46962L22.8835 10.3525ZM21.8947 10.022C22.0802 10.2959 22.3671 10.3849 22.5979 10.4085L22.6993 9.41362C22.6615 9.40976 22.6545 9.40392 22.6645 9.40877C22.6704 9.4116 22.6803 9.41728 22.6919 9.42703C22.7036 9.43695 22.7142 9.44871 22.7227 9.46122L21.8947 10.022ZM11.5829 12.3357C11.7216 10.2781 13.5493 8.67291 15.831 8.10738C18.0999 7.545 20.5769 8.07616 21.8947 10.022L22.7227 9.46122C21.0943 7.05683 18.1178 6.5103 15.5904 7.13675C13.0757 7.76004 10.7643 9.61023 10.5852 12.2685L11.5829 12.3357ZM13.7591 17.3519C12.6208 16.0928 11.4203 14.7496 11.5829 12.3357L10.5852 12.2685C10.3921 15.1342 11.8733 16.7572 13.0173 18.0226L13.7591 17.3519ZM15.3912 20.1279C15.3396 19.559 15.1067 19.0659 14.8074 18.6216C14.5121 18.1835 14.1306 17.7629 13.7591 17.3519L13.0173 18.0226C13.4006 18.4466 13.7302 18.8126 13.9781 19.1805C14.2219 19.5423 14.3642 19.8745 14.3953 20.2182L15.3912 20.1279ZM14.5729 19.7846C14.5588 19.7993 14.5447 19.814 14.5308 19.8287L15.2558 20.5174C15.2682 20.5043 15.2807 20.4913 15.2934 20.4781L14.5729 19.7846ZM13.9132 23.0247C14.9446 21.9451 15.431 21.0183 15.4331 20.1326L14.4332 20.1302C14.4319 20.6329 14.1571 21.3217 13.1901 22.3339L13.9132 23.0247ZM9.81754 34.2257C9.52141 33.3513 9.48153 31.6566 10.0677 29.5964C10.6485 27.5549 11.8315 25.2036 13.9132 23.0247L13.1901 22.3339C10.9899 24.637 9.7286 27.1339 9.10585 29.3227C8.48842 31.4929 8.48566 33.4105 8.87039 34.5465L9.81754 34.2257ZM9.05398 33.9787L9.05257 33.9798L9.63537 34.7924L9.63678 34.7914L9.05398 33.9787ZM9.81984 34.2273L9.81931 34.2257L8.87144 34.5444L8.87197 34.5459L9.81984 34.2273ZM14.6887 31.3158C12.2794 32.0632 10.0353 33.2772 9.05457 33.9803L9.63724 34.793C10.5265 34.1555 12.6731 32.9881 14.9849 32.2709L14.6887 31.3158ZM17.5697 30.735C16.6117 30.8122 15.6301 31.0286 14.6909 31.3151L14.9827 32.2716C15.874 31.9997 16.7827 31.8017 17.65 31.7318L17.5697 30.735ZM23.3315 41.6461C24.2185 37.2921 23.8877 34.4641 22.7127 32.7543C21.5113 31.0061 19.5412 30.5761 17.5697 30.735L17.65 31.7318C19.4523 31.5865 20.9777 31.9952 21.8885 33.3206C22.8257 34.6845 23.2239 37.165 22.3517 41.4464L23.3315 41.6461ZM22.4414 45.1445C22.7872 43.9989 23.0897 42.8331 23.3315 41.6461L22.3517 41.4464C22.1168 42.5992 21.8223 43.735 21.484 44.8555L22.4414 45.1445ZM0.5 23.0123C0.5 35.0858 10.0041 44.9392 21.9393 45.4994L21.9862 44.5005C10.5819 43.9652 1.5 34.5492 1.5 23.0123H0.5ZM23.0123 0.5C10.5791 0.5 0.5 10.5791 0.5 23.0123H1.5C1.5 11.1314 11.1314 1.5 23.0123 1.5V0.5ZM45.5246 23.0123C45.5246 10.5791 35.4455 0.5 23.0123 0.5V1.5C34.8932 1.5 44.5246 11.1314 44.5246 23.0123H45.5246ZM13.1747 23.0077L13.1758 23.0091L13.9298 22.3522L13.9286 22.3508L13.1747 23.0077ZM13.2884 23.1391C14.2544 24.2619 15.56 25.9672 16.4502 27.5623C16.897 28.363 17.2228 29.107 17.3598 29.7197C17.5011 30.351 17.4149 30.7074 17.2425 30.8942L17.9772 31.5725C18.4908 31.0163 18.4994 30.2329 18.3357 29.5014C18.1679 28.7512 17.7891 27.9095 17.3234 27.075C16.3886 25.4 15.037 23.6382 14.0465 22.4869L13.2884 23.1391ZM15.2789 20.3086C16.668 18.9198 19.3003 17.3282 22.6363 17.1289C25.9506 16.9309 30.0213 18.1034 34.3199 22.3415L35.0219 21.6294C30.5491 17.2195 26.2105 15.9135 22.5767 16.1307C18.9646 16.3465 16.1098 18.0637 14.5718 19.6014L15.2789 20.3086Z"
        fill="white" />
    <rect fill="white" height="3" rx="0.5" stroke="white" width="3" x="20" y="21" />
</svg>
