<svg fill="none" height="23" viewBox="0 0 22 23" width="22" xmlns="http://www.w3.org/2000/svg">
    <g clip-path="url(#clip0_109_7691)">
        <path
            d="M16.326 14.7613L12.8525 11.0084L16.326 7.25555C16.7095 6.84123 16.7095 6.16872 16.326 5.7544L15.8629 5.25404C15.4794 4.83972 14.857 4.83972 14.4735 5.25404L11 9.00693L7.52651 5.25404C7.14304 4.83972 6.52059 4.83972 6.13712 5.25404L5.67402 5.7544C5.29054 6.16872 5.29054 6.84123 5.67402 7.25555L9.1475 11.0084L5.67402 14.7613C5.29054 15.1757 5.29054 15.8482 5.67402 16.2625L6.13712 16.7628C6.52059 17.1772 7.14304 17.1772 7.52651 16.7628L11 13.01L14.4735 16.7628C14.857 17.1772 15.4794 17.1772 15.8629 16.7628L16.326 16.2625C16.7095 15.8482 16.7095 15.1757 16.326 14.7613Z"
            fill="#454A54" />
    </g>
    <defs>
        <clipPath id="clip0_109_7691">
            <rect fill="white" height="15"
                transform="matrix(0.67926 0.733898 -0.67926 0.733898 11 0)" width="15" />
        </clipPath>
    </defs>
</svg>
