<svg fill="none" height="18" viewBox="0 0 16 18" width="16" xmlns="http://www.w3.org/2000/svg">
    <g clip-path="url(#clip0_84_13846)">
        <path
            d="M4.5384 0.5C4.68692 0.5 4.82936 0.562687 4.93438 0.674271C5.0394 0.785856 5.0984 0.937196 5.0984 1.095V2.20765H11.112V1.10265C11.112 0.944846 11.171 0.793506 11.276 0.681921C11.381 0.570337 11.5235 0.50765 11.672 0.50765C11.8205 0.50765 11.963 0.570337 12.068 0.681921C12.173 0.793506 12.232 0.944846 12.232 1.10265V2.20765H14.4C14.8242 2.20765 15.2311 2.38664 15.5311 2.70527C15.8311 3.0239 15.9998 3.45608 16 3.9068V15.8008C15.9998 16.2516 15.8311 16.6838 15.5311 17.0024C15.2311 17.321 14.8242 17.5 14.4 17.5H1.6C1.17579 17.5 0.768947 17.321 0.468912 17.0024C0.168877 16.6838 0.000212104 16.2516 0 15.8008L0 3.9068C0.000212104 3.45608 0.168877 3.0239 0.468912 2.70527C0.768947 2.38664 1.17579 2.20765 1.6 2.20765H3.9784V1.09415C3.97861 0.936494 4.03771 0.785371 4.1427 0.673971C4.2477 0.56257 4.39002 0.5 4.5384 0.5V0.5ZM1.12 7.0807V15.8008C1.12 15.8678 1.13242 15.9341 1.15654 15.996C1.18066 16.0579 1.21602 16.1141 1.26059 16.1615C1.30516 16.2088 1.35808 16.2464 1.41631 16.272C1.47455 16.2977 1.53697 16.3109 1.6 16.3109H14.4C14.463 16.3109 14.5255 16.2977 14.5837 16.272C14.6419 16.2464 14.6948 16.2088 14.7394 16.1615C14.784 16.1141 14.8193 16.0579 14.8435 15.996C14.8676 15.9341 14.88 15.8678 14.88 15.8008V7.0926L1.12 7.0807ZM5.3336 12.9262V14.3422H4V12.9262H5.3336ZM8.6664 12.9262V14.3422H7.3336V12.9262H8.6664ZM12 12.9262V14.3422H10.6664V12.9262H12ZM5.3336 9.5457V10.9618H4V9.5457H5.3336ZM8.6664 9.5457V10.9618H7.3336V9.5457H8.6664ZM12 9.5457V10.9618H10.6664V9.5457H12ZM3.9784 3.3968H1.6C1.53697 3.3968 1.47455 3.40999 1.41631 3.43562C1.35808 3.46125 1.30516 3.49882 1.26059 3.54618C1.21602 3.59353 1.18066 3.64976 1.15654 3.71163C1.13242 3.77351 1.12 3.83983 1.12 3.9068V5.89155L14.88 5.90345V3.9068C14.88 3.83983 14.8676 3.77351 14.8435 3.71163C14.8193 3.64976 14.784 3.59353 14.7394 3.54618C14.6948 3.49882 14.6419 3.46125 14.5837 3.43562C14.5255 3.40999 14.463 3.3968 14.4 3.3968H12.232V4.18645C12.232 4.34425 12.173 4.49559 12.068 4.60718C11.963 4.71876 11.8205 4.78145 11.672 4.78145C11.5235 4.78145 11.381 4.71876 11.276 4.60718C11.171 4.49559 11.112 4.34425 11.112 4.18645V3.3968H5.0984V4.1788C5.0984 4.3366 5.0394 4.48794 4.93438 4.59953C4.82936 4.71111 4.68692 4.7738 4.5384 4.7738C4.38988 4.7738 4.24744 4.71111 4.14242 4.59953C4.0374 4.48794 3.9784 4.3366 3.9784 4.1788V3.3968Z"
            fill="#3CA2F2" />
    </g>
    <defs>
        <clipPath id="clip0_84_13846">
            <rect fill="white" height="17" transform="translate(0 0.5)" width="16" />
        </clipPath>
    </defs>
</svg>
