<svg fill="none" height="28" viewBox="0 0 26 28" width="26" xmlns="http://www.w3.org/2000/svg">
    <path clip-rule="evenodd" d="M9.3584 26.16H16.1504V27.5899H9.3584V26.16Z" fill="white"
        fill-rule="evenodd" />
    <path clip-rule="evenodd"
        d="M13.6484 23.3002C13.838 23.3002 14.0199 23.3755 14.154 23.5096C14.2881 23.6437 14.3634 23.8255 14.3634 24.0152V26.875C14.3634 27.0646 14.2881 27.2464 14.154 27.3805C14.0199 27.5146 13.838 27.5899 13.6484 27.5899C13.4588 27.5899 13.277 27.5146 13.1429 27.3805C13.0088 27.2464 12.9335 27.0646 12.9335 26.875V24.0152C12.9335 23.8255 13.0088 23.6437 13.1429 23.5096C13.277 23.3755 13.4588 23.3002 13.6484 23.3002ZM7.92882 12.5759C8.11844 12.5759 8.30029 12.6513 8.43437 12.7853C8.56845 12.9194 8.64377 13.1013 8.64377 13.2909C8.64377 17.6778 11.9712 21.1553 15.982 21.1553C18.2084 21.1553 20.2145 20.0915 21.5672 18.3906C21.6257 18.3172 21.6981 18.2559 21.7803 18.2104C21.8624 18.1649 21.9527 18.1361 22.046 18.1255C22.1394 18.1149 22.2338 18.1228 22.3241 18.1487C22.4144 18.1747 22.4986 18.2181 22.5721 18.2766C22.6456 18.3351 22.7068 18.4075 22.7523 18.4896C22.7978 18.5718 22.8266 18.6621 22.8372 18.7554C22.8478 18.8487 22.8399 18.9432 22.814 19.0335C22.7881 19.1237 22.7446 19.208 22.6861 19.2815C21.0854 21.2926 18.6817 22.5852 15.982 22.5852C11.0975 22.5852 7.21387 18.3813 7.21387 13.2909C7.21387 13.1013 7.28919 12.9194 7.42327 12.7853C7.55735 12.6513 7.7392 12.5759 7.92882 12.5759Z"
        fill="white" fill-rule="evenodd" />
    <path clip-rule="evenodd"
        d="M5.76653 3.99655C5.47633 3.99656 5.19034 4.06589 4.93235 4.19878C4.67437 4.33166 4.45187 4.52426 4.28337 4.76053C4.11488 4.9968 4.00527 5.26991 3.96367 5.55711C3.92207 5.84431 3.94968 6.13729 4.04421 6.41166L4.45316 7.59776C4.87539 8.82224 4.91824 10.1456 4.57614 11.3949L4.22224 12.6861C3.57735 15.0404 3.45795 17.4241 4.72056 19.1671C6.52724 21.663 9.52789 23.3002 12.9332 23.3002C17.8192 23.3002 21.8637 19.9307 22.7581 15.5044C23.0019 14.2947 23.3643 12.9892 24.1379 11.876L15.4527 13.2752C14.6016 13.4124 13.729 13.29 12.9485 12.924C12.168 12.558 11.5159 11.9653 11.0772 11.2233L7.33442 4.89096C7.1733 4.61851 6.94397 4.39275 6.66904 4.23591C6.39411 4.07907 6.08305 3.99658 5.76653 3.99655ZM2.69224 6.87781C1.96513 4.76656 3.53374 2.56665 5.76725 2.56665C6.33227 2.56676 6.88752 2.71403 7.37832 2.99397C7.86913 3.27391 8.27855 3.67686 8.56628 4.16314L12.3091 10.4955C12.6015 10.9903 13.0362 11.3855 13.5565 11.6296C14.0768 11.8737 14.6586 11.9553 15.2261 11.8639L24.2201 10.4147C25.3855 10.2266 26.1791 11.565 25.4556 12.498C24.7621 13.3924 24.4125 14.5357 24.1601 15.7868C23.127 20.9009 18.4798 24.7301 12.9332 24.7301C9.06246 24.7301 5.63355 22.8663 3.56233 20.0057C1.90079 17.7108 2.17104 14.7616 2.84309 12.3079L3.19699 11.0174C3.46338 10.0458 3.43024 9.01637 3.10191 8.06391L2.69295 6.87781H2.69224Z"
        fill="white" fill-rule="evenodd" />
    <path clip-rule="evenodd"
        d="M6.56034 0.421764C7.46118 -0.479075 9.00118 0.158662 9.00118 1.43271V2.56662H10.1351C11.4091 2.56662 12.0469 4.10662 11.146 5.00746L9.86413 6.28937C9.72929 6.4196 9.54869 6.49167 9.36123 6.49004C9.17377 6.48841 8.99445 6.41322 8.8619 6.28066C8.72934 6.1481 8.65415 5.96878 8.65252 5.78133C8.65089 5.59387 8.72295 5.41327 8.85319 5.27843L10.1351 3.99652H9.00118C8.62195 3.99652 8.25825 3.84587 7.99009 3.57771C7.72193 3.30955 7.57128 2.94585 7.57128 2.56662V1.43271L1.43271 7.57128H3.28157C3.47119 7.57128 3.65304 7.6466 3.78712 7.78068C3.9212 7.91476 3.99652 8.09661 3.99652 8.28623C3.99652 8.47585 3.9212 8.6577 3.78712 8.79178C3.65304 8.92586 3.47119 9.00118 3.28157 9.00118H1.43271C0.158662 9.00118 -0.479075 7.46118 0.421764 6.56034L6.56034 0.421764Z"
        fill="white" fill-rule="evenodd" />
    <path
        d="M6.49924 5.4265C6.49924 5.61612 6.42391 5.79797 6.28983 5.93205C6.15575 6.06613 5.9739 6.14145 5.78429 6.14145C5.59467 6.14145 5.41282 6.06613 5.27874 5.93205C5.14466 5.79797 5.06934 5.61612 5.06934 5.4265C5.06934 5.23688 5.14466 5.05503 5.27874 4.92095C5.41282 4.78687 5.59467 4.71155 5.78429 4.71155C5.9739 4.71155 6.15575 4.78687 6.28983 4.92095C6.42391 5.05503 6.49924 5.23688 6.49924 5.4265Z"
        fill="white" />
</svg>
