<svg width="28" height="28" viewBox="0 0 28 28" fill="none" xmlns="http://www.w3.org/2000/svg">
<path fill-rule="evenodd" clip-rule="evenodd" d="M19.2093 7.16247C18.7776 7.16247 18.3635 7.33398 18.0582 7.63928C17.7529 7.94457 17.5814 8.35863 17.5814 8.79038C17.5814 9.22213 17.7529 9.63619 18.0582 9.94148C18.3635 10.2468 18.7776 10.4183 19.2093 10.4183C19.6411 10.4183 20.0551 10.2468 20.3604 9.94148C20.6657 9.63619 20.8372 9.22213 20.8372 8.79038C20.8372 8.35863 20.6657 7.94457 20.3604 7.63928C20.0551 7.33398 19.6411 7.16247 19.2093 7.16247ZM15.6279 8.79038C15.6279 7.84053 16.0053 6.92959 16.6769 6.25795C17.3485 5.58631 18.2595 5.20898 19.2093 5.20898C20.1592 5.20898 21.0701 5.58631 21.7418 6.25795C22.4134 6.92959 22.7907 7.84053 22.7907 8.79038C22.7907 9.74022 22.4134 10.6512 21.7418 11.3228C21.0701 11.9945 20.1592 12.3718 19.2093 12.3718C18.2595 12.3718 17.3485 11.9945 16.6769 11.3228C16.0053 10.6512 15.6279 9.74022 15.6279 8.79038Z" fill="#3CA2F2"/>
<path fill-rule="evenodd" clip-rule="evenodd" d="M13.9258 0H14.0742C17.0813 0 19.4372 7.76247e-08 21.2761 0.247442C23.1567 0.500093 24.6413 1.02884 25.8069 2.19312C26.9725 3.3587 27.4999 4.84335 27.7526 6.72521C28 8.56279 28 10.9187 28 13.9258V14.0742C28 17.0813 28 19.4372 27.7526 21.2761C27.4999 23.1567 26.9712 24.6413 25.8069 25.8069C24.6413 26.9725 23.1567 27.4999 21.2748 27.7526C19.4372 28 17.0813 28 14.0742 28H13.9258C10.9187 28 8.56279 28 6.72391 27.7526C4.84335 27.4999 3.3587 26.9712 2.19312 25.8069C1.02753 24.6413 0.500093 23.1567 0.247442 21.2748C7.76247e-08 19.4372 0 17.0813 0 14.0742V13.9258C0 10.9187 7.76247e-08 8.56279 0.247442 6.72391C0.500093 4.84335 1.02884 3.3587 2.19312 2.19312C3.3587 1.02753 4.84335 0.500093 6.72521 0.247442C8.56279 7.76247e-08 10.9187 0 13.9258 0ZM3.57488 24.4251C2.83256 23.6828 2.4067 22.68 2.1827 21.0143C1.98344 19.5284 1.9574 17.6322 1.95349 15.094L3.90047 13.3905C4.28582 13.0531 4.78505 12.8748 5.29698 12.8917C5.80891 12.9086 6.29526 13.1195 6.65749 13.4817L12.2445 19.0687C12.8405 19.665 13.6279 20.0319 14.4678 20.1048C15.3078 20.1777 16.1466 19.9519 16.8365 19.4672L17.2246 19.1937C17.7672 18.8122 18.4233 18.6261 19.0854 18.6658C19.7476 18.7055 20.3766 18.9688 20.8698 19.4125L25.0672 23.1918C25.1124 23.2317 25.1607 23.2678 25.2117 23.2999C25.017 23.7179 24.7508 24.0987 24.4251 24.4251C23.6828 25.1674 22.68 25.5933 21.0143 25.8173C19.3213 26.0439 17.0969 26.0465 14 26.0465C10.9031 26.0465 8.6787 26.0439 6.98567 25.8173C5.32 25.5933 4.31721 25.1661 3.57488 24.4251ZM6.98567 2.1827C5.32 2.4067 4.31591 2.83386 3.57358 3.57488C2.83256 4.31721 2.4067 5.32 2.1827 6.98567C1.99386 8.39219 1.9613 10.1633 1.95479 12.4984L2.61507 11.9202C3.3735 11.2567 4.35577 10.9063 5.3629 10.9399C6.37003 10.9735 7.32675 11.3886 8.03926 12.1012L13.6262 17.6882C13.8973 17.9588 14.2551 18.1252 14.6367 18.158C15.0183 18.1909 15.3992 18.0882 15.7126 17.8679L16.1007 17.5944C17.0052 16.9587 18.0987 16.6488 19.2023 16.7153C20.3059 16.7817 21.3543 17.2207 22.176 17.9604L25.7887 21.2123L25.8173 21.0143C26.0439 19.3213 26.0465 17.0969 26.0465 14C26.0465 10.9031 26.0439 8.6787 25.8173 6.98567C25.5933 5.32 25.1661 4.31591 24.4251 3.57358C23.6828 2.83256 22.68 2.4067 21.0143 2.1827C19.3213 1.95609 17.0969 1.95349 14 1.95349C10.9031 1.95349 8.6787 1.95609 6.98567 2.1827Z" fill="#3CA2F2"/>
</svg>
