<svg fill="none" height="31" viewBox="0 0 30 31" width="30" xmlns="http://www.w3.org/2000/svg">
    <path d="M15 11.5V16.5H20V14.5H17V11.5H15Z" fill="#879AC1" />
    <path
        d="M25.2212 11.6075C24.725 10.4186 24.0047 9.33858 23.1004 8.42743C21.7315 7.0447 19.9915 6.0975 18.0954 5.70293C16.7793 5.43236 15.4228 5.43236 14.1068 5.70293C12.2089 6.09498 10.4674 7.04296 9.0996 8.42854C8.19747 9.34066 7.47746 10.4195 6.9788 11.6064C6.46302 12.8382 6.19815 14.1623 6.2 15.4998L6.2011 15.5276H4L7.3 19.9443L10.6 15.5276H8.4011L8.4 15.4998C8.39683 13.9502 8.8548 12.4354 9.71449 11.1519C10.269 10.3238 10.975 9.61025 11.7946 9.04967C12.6283 8.48233 13.5635 8.08453 14.5479 7.87853C16.5483 7.46308 18.6301 7.86701 20.3358 9.00152C22.0414 10.136 23.2313 11.9083 23.6438 13.9287C23.8513 14.9641 23.8513 16.031 23.6438 17.0665C23.4425 18.0617 23.0485 19.0068 22.4844 19.8477C22.2094 20.2599 21.8937 20.6477 21.545 20.9988C20.8423 21.7077 20.0114 22.2739 19.0975 22.6666C18.632 22.8654 18.1482 23.0172 17.6532 23.1199C16.6285 23.3294 15.5726 23.3294 14.5479 23.1199C13.5637 22.9161 12.6289 22.5186 11.7968 21.9499C11.3875 21.6706 11.0056 21.3525 10.6561 20.9999L9.1007 22.5711C10.0193 23.5003 11.1104 24.2373 12.3115 24.7399C13.5125 25.2425 14.8 25.5008 16.1 25.5C17.4233 25.4995 18.7333 25.2324 19.9533 24.7144C21.7217 23.9587 23.2346 22.7002 24.3082 21.0921C25.4131 19.4409 26.0024 17.4929 26 15.4998C26.0027 14.1626 25.7378 12.8386 25.2212 11.6075Z"
        fill="#879AC1" />
</svg>
