<svg fill="none" height="51" viewBox="0 0 49 51" width="49" xmlns="http://www.w3.org/2000/svg">
    <rect fill="#F1F8FE" height="49.858" rx="24" width="48" x="0.5" y="0.85791" />
    <g clip-path="url(#clip0_463_7699)">
        <path
            d="M27.2967 12.1286C27.1619 11.8834 26.8411 11.787 26.58 11.9137C26.4734 11.9654 26.3886 12.0494 26.3392 12.1521L22.7543 19.6877L20.5879 15.9386C20.496 15.7734 20.3119 15.6718 20.1135 15.6771C19.9157 15.6799 19.7359 15.7852 19.6466 15.9512L15.795 23.0832C14.5548 25.3707 15.5227 28.17 17.957 29.3355C18.0615 29.3857 18.1681 29.4323 18.2763 29.4754C17.2339 33.5947 19.6045 37.8018 23.8159 39.3066C25.753 39.9981 27.8847 40.0404 29.8512 39.4266L30.4363 39.2425C35.1409 37.77 37.6843 32.9921 36.1172 28.571C35.9749 28.1691 35.8005 27.778 35.5957 27.4009L27.2967 12.1286ZM18.5907 28.5161C16.6365 27.6725 15.78 25.4995 16.6779 23.663C16.6988 23.6202 16.7206 23.5775 16.7434 23.5354L20.1369 17.2502L22.2074 20.8372L18.8119 27.9788C18.728 28.1557 18.6609 28.3362 18.5907 28.5161V28.5161ZM34.9234 34.0551C34.0507 36.0614 32.2895 37.6098 30.1012 38.2944L29.5161 38.4777C27.782 39.0197 25.9017 38.9821 24.1937 38.3713C20.1091 36.9097 18.0588 32.6133 19.6141 28.7748C19.667 28.644 19.7241 28.5146 19.7848 28.3866L26.8589 13.5137L34.651 27.8553C35.6996 29.7856 35.7992 32.05 34.9234 34.0551V34.0551Z"
            fill="#2293F0" />
        <path
            d="M33.7404 29.8511H33.7372C33.4447 29.8511 33.2071 30.073 33.2053 30.348C33.1983 32.5515 31.8712 34.5636 29.7745 35.5499C29.5113 35.6725 29.4036 35.9722 29.5338 36.2198C29.6643 36.4672 29.9832 36.5685 30.2466 36.446C30.2487 36.445 30.251 36.4439 30.2532 36.4428C32.7075 35.2878 34.2605 32.9328 34.2691 30.3535C34.2705 30.0775 34.0338 29.8528 33.7404 29.8511V29.8511Z"
            fill="#2293F0" />
        <path d="M36.3965 36.3491H37.4606V37.3489H36.3965V36.3491Z" fill="#2293F0" />
        <path d="M37.9932 34.3496H39.0573V35.3494H37.9932V34.3496Z" fill="#2293F0" />
        <path d="M34.8008 38.3486H35.8649V39.3484H34.8008V38.3486Z" fill="#2293F0" />
    </g>
    <defs>
        <clipPath id="clip0_463_7699">
            <rect fill="white" height="28" transform="translate(10.5 11.8579)" width="30" />
        </clipPath>
    </defs>
</svg>
