<svg fill="none" height="43" viewBox="0 0 35 43" width="35" xmlns="http://www.w3.org/2000/svg">
    <rect fill="#3CA2F2" height="35" rx="17.5" width="35" y="5" />
    <path
        d="M16.8 30C16.6667 30 16.5533 29.9533 16.46 29.86C16.3667 29.7667 16.32 29.6533 16.32 29.52V20.08C16.32 19.9467 16.3667 19.8333 16.46 19.74C16.5533 19.6467 16.6667 19.6 16.8 19.6H18.46C18.6067 19.6 18.72 19.6467 18.8 19.74C18.8933 19.8333 18.94 19.9467 18.94 20.08V29.52C18.94 29.6533 18.8933 29.7667 18.8 29.86C18.72 29.9533 18.6067 30 18.46 30H16.8ZM16.72 17.88C16.5733 17.88 16.4533 17.84 16.36 17.76C16.28 17.6667 16.24 17.5467 16.24 17.4V15.96C16.24 15.8267 16.28 15.7133 16.36 15.62C16.4533 15.5267 16.5733 15.48 16.72 15.48H18.54C18.6867 15.48 18.8067 15.5267 18.9 15.62C18.9933 15.7133 19.04 15.8267 19.04 15.96V17.4C19.04 17.5467 18.9933 17.6667 18.9 17.76C18.8067 17.84 18.6867 17.88 18.54 17.88H16.72Z"
        fill="white" />
</svg>
