<svg fill="none" height="26" viewBox="0 0 22 26" width="22" xmlns="http://www.w3.org/2000/svg">
    <path
        d="M14.8551 20.0888V20.9749C14.8551 21.9149 14.4803 22.8164 13.8131 23.4811C13.146 24.1458 12.2411 24.5192 11.2977 24.5192C10.3542 24.5192 9.44934 24.1458 8.7822 23.4811C8.11506 22.8164 7.74027 21.9149 7.74027 20.9749V20.0888M20.8404 18.2851C19.413 16.5445 18.4052 15.6584 18.4052 10.8598C18.4052 6.46538 16.153 4.89979 14.2992 4.13943C14.053 4.03864 13.8212 3.80715 13.7462 3.55517C13.421 2.45256 12.5094 1.4812 11.2977 1.4812C10.0859 1.4812 9.17379 2.45312 8.85195 3.55628C8.77691 3.81103 8.54513 4.03864 8.29889 4.13943C6.44293 4.9009 4.19287 6.46095 4.19287 10.8598C4.19009 15.6584 3.18235 16.5445 1.75494 18.2851C1.16353 19.0061 1.68157 20.0888 2.716 20.0888H19.8849C20.9138 20.0888 21.4285 19.0028 20.8404 18.2851Z"
        stroke="white" stroke-linecap="round" stroke-linejoin="round" stroke-width="1.72785" />
</svg>
