<svg fill="none" height="47" viewBox="0 0 45 47" width="45" xmlns="http://www.w3.org/2000/svg">
    <rect fill="#F1F8FE" height="47" rx="22.5" width="45" />
    <path
        d="M22 22.5781C21.3526 22.5779 20.7278 22.8155 20.2441 23.2458C19.7605 23.6761 19.4517 24.269 19.3765 24.912C19.3013 25.555 19.4649 26.2032 19.8362 26.7334C20.2075 27.2637 20.7607 27.6391 21.3906 27.7883V29.6875C21.3906 29.8491 21.4548 30.0041 21.5691 30.1184C21.6834 30.2327 21.8384 30.2969 22 30.2969C22.1616 30.2969 22.3166 30.2327 22.4309 30.1184C22.5452 30.0041 22.6094 29.8491 22.6094 29.6875V27.7883C23.2393 27.6391 23.7925 27.2637 24.1638 26.7334C24.5351 26.2032 24.6987 25.555 24.6235 24.912C24.5483 24.269 24.2395 23.6761 23.7559 23.2458C23.2722 22.8155 22.6474 22.5779 22 22.5781ZM22 26.6406C21.7188 26.6406 21.4439 26.5572 21.21 26.401C20.9762 26.2448 20.794 26.0227 20.6864 25.7629C20.5787 25.5031 20.5506 25.2172 20.6054 24.9414C20.6603 24.6655 20.7957 24.4122 20.9946 24.2133C21.1934 24.0145 21.4468 23.8791 21.7226 23.8242C21.9984 23.7693 22.2843 23.7975 22.5441 23.9051C22.8039 24.0127 23.026 24.195 23.1822 24.4288C23.3385 24.6626 23.4219 24.9375 23.4219 25.2188C23.4219 25.5959 23.2721 25.9575 23.0054 26.2242C22.7388 26.4908 22.3771 26.6406 22 26.6406ZM30.125 19.3281H26.2656V16.2812C26.2656 15.1499 25.8162 14.065 25.0163 13.265C24.2163 12.465 23.1313 12.0156 22 12.0156C20.8687 12.0156 19.7837 12.465 18.9837 13.265C18.1838 14.065 17.7344 15.1499 17.7344 16.2812V19.3281H13.875C13.4979 19.3281 13.1362 19.4779 12.8696 19.7446C12.6029 20.0112 12.4531 20.3729 12.4531 20.75V32.125C12.4531 32.5021 12.6029 32.8638 12.8696 33.1304C13.1362 33.3971 13.4979 33.5469 13.875 33.5469H30.125C30.5021 33.5469 30.8638 33.3971 31.1304 33.1304C31.3971 32.8638 31.5469 32.5021 31.5469 32.125V20.75C31.5469 20.3729 31.3971 20.0112 31.1304 19.7446C30.8638 19.4779 30.5021 19.3281 30.125 19.3281ZM18.9531 16.2812C18.9531 15.4732 19.2741 14.6982 19.8455 14.1268C20.4169 13.5554 21.1919 13.2344 22 13.2344C22.8081 13.2344 23.5831 13.5554 24.1545 14.1268C24.7259 14.6982 25.0469 15.4732 25.0469 16.2812V19.3281H18.9531V16.2812ZM30.3281 32.125C30.3281 32.1789 30.3067 32.2305 30.2686 32.2686C30.2305 32.3067 30.1789 32.3281 30.125 32.3281H13.875C13.8211 32.3281 13.7695 32.3067 13.7314 32.2686C13.6933 32.2305 13.6719 32.1789 13.6719 32.125V20.75C13.6719 20.6961 13.6933 20.6445 13.7314 20.6064C13.7695 20.5683 13.8211 20.5469 13.875 20.5469H30.125C30.1789 20.5469 30.2305 20.5683 30.2686 20.6064C30.3067 20.6445 30.3281 20.6961 30.3281 20.75V32.125Z"
        fill="#3CA2F2" />
</svg>
