<svg fill="none" height="31" viewBox="0 0 30 31" width="30" xmlns="http://www.w3.org/2000/svg">
    <path
        d="M15 15.5C17.7614 15.5 20 13.2614 20 10.5C20 7.73858 17.7614 5.5 15 5.5C12.2386 5.5 10 7.73858 10 10.5C10 13.2614 12.2386 15.5 15 15.5Z"
        stroke="#879AC1" stroke-width="2" />
    <path
        d="M20.0001 17.5H20.3521C21.0831 17.5002 21.789 17.7674 22.337 18.2513C22.885 18.7352 23.2374 19.4026 23.3281 20.128L23.7191 23.252C23.7542 23.5334 23.7291 23.8191 23.6455 24.0901C23.5618 24.3611 23.4214 24.6112 23.2337 24.8238C23.046 25.0364 22.8152 25.2066 22.5566 25.3232C22.2981 25.4398 22.0177 25.5001 21.7341 25.5H8.26606C7.98244 25.5001 7.70206 25.4398 7.44351 25.3232C7.18496 25.2066 6.95416 25.0364 6.76644 24.8238C6.57871 24.6112 6.43835 24.3611 6.35467 24.0901C6.27098 23.8191 6.24589 23.5334 6.28106 23.252L6.67106 20.128C6.76176 19.4022 7.11448 18.7346 7.66289 18.2506C8.21131 17.7667 8.91764 17.4997 9.64906 17.5H10.0001"
        stroke="#879AC1" stroke-linecap="round" stroke-linejoin="round" stroke-width="2" />
</svg>
