<svg width="33" height="33" viewBox="0 0 33 33" fill="none" xmlns="http://www.w3.org/2000/svg">
<path d="M32.6994 0.801373C32.8421 0.94437 32.9398 1.12616 32.9801 1.32417C33.0204 1.52218 33.0017 1.72767 32.9262 1.91512L20.9245 31.9183C20.8188 32.1825 20.6422 32.4125 20.4141 32.5828C20.1861 32.7531 19.9155 32.8572 19.6322 32.8837C19.3488 32.9101 19.0636 32.8578 18.808 32.7326C18.5524 32.6074 18.3363 32.4142 18.1835 32.1741L11.6289 21.8719L1.32667 15.3172C1.08602 15.1646 0.89221 14.9484 0.766641 14.6926C0.641073 14.4367 0.588623 14.1512 0.615079 13.8674C0.641535 13.5837 0.745868 13.3127 0.916567 13.0845C1.08727 12.8563 1.31769 12.6797 1.58242 12.5741L31.5856 0.57656C31.7731 0.501098 31.9786 0.482371 32.1766 0.522706C32.3746 0.56304 32.5564 0.660659 32.6994 0.803435V0.801373ZM13.6872 21.2696L19.3818 30.2168L29.1436 5.81325L13.6872 21.2696ZM27.6854 4.35506L3.28192 14.1169L12.2311 19.8094L27.6875 4.35506H27.6854Z" fill="#3CA2F2"/>
</svg>
