<svg fill="none" height="47" viewBox="0 0 45 47" width="45" xmlns="http://www.w3.org/2000/svg">
    <rect fill="#F1F8FE" height="47" rx="22.5" width="45" />
    <path
        d="M30.2489 25.0834C30.296 24.7242 30.3214 24.3624 30.3247 24.0001C30.3214 23.6378 30.296 23.276 30.2489 22.9168L32.5943 21.0805C32.7002 20.9996 32.7726 20.8825 32.7975 20.7516C32.8225 20.6207 32.7984 20.4851 32.7297 20.3709L30.5089 16.5197C30.4445 16.4042 30.3402 16.3162 30.2155 16.2723C30.0907 16.2284 29.9543 16.2316 29.8318 16.2813L27.0639 17.3972C26.4879 16.9576 25.8581 16.5935 25.1897 16.3138L24.7726 13.3726C24.7542 13.2424 24.6891 13.1234 24.5895 13.0377C24.4898 12.952 24.3624 12.9055 24.2309 12.9068H19.7784C19.647 12.9055 19.5196 12.952 19.4199 13.0377C19.3203 13.1234 19.2552 13.2424 19.2368 13.3726L18.8197 16.3138C18.1505 16.5918 17.5204 16.956 16.9455 17.3972L14.1668 16.2813C14.0443 16.2316 13.9078 16.2284 13.7831 16.2723C13.6584 16.3162 13.554 16.4042 13.4897 16.5197L11.2689 20.3709C11.2002 20.4851 11.176 20.6207 11.201 20.7516C11.226 20.8825 11.2984 20.9996 11.4043 21.0805L13.7443 22.9168C13.6973 23.276 13.672 23.6378 13.6684 24.0001C13.6718 24.3624 13.6971 24.7242 13.7443 25.0834L11.4043 26.9197C11.2984 27.0006 11.226 27.1177 11.201 27.2486C11.176 27.3795 11.2002 27.515 11.2689 27.6293L13.4897 31.4805C13.554 31.596 13.6584 31.684 13.7831 31.7279C13.9078 31.7718 14.0443 31.7686 14.1668 31.7188L16.9347 30.603C17.5107 31.0426 18.1405 31.4067 18.8089 31.6863L19.2259 34.6276C19.2443 34.7577 19.3094 34.8768 19.4091 34.9625C19.5088 35.0482 19.6362 35.0947 19.7676 35.0934H24.2093C24.3407 35.0947 24.4681 35.0482 24.5678 34.9625C24.6675 34.8768 24.7325 34.7577 24.7509 34.6276L25.168 31.6863C25.8373 31.4084 26.4673 31.0442 27.0422 30.603L29.8101 31.7188C29.9326 31.7686 30.0691 31.7718 30.1938 31.7279C30.3185 31.684 30.4229 31.596 30.4872 31.4805L32.708 27.6293C32.7767 27.515 32.8009 27.3795 32.7759 27.2486C32.7509 27.1177 32.6785 27.0006 32.5726 26.9197L30.2489 25.0834ZM21.9993 27.8893C21.2298 27.8903 20.4774 27.6632 19.8371 27.2365C19.1968 26.8098 18.6975 26.2027 18.4023 25.4922C18.1071 24.7816 18.0293 23.9995 18.1788 23.2447C18.3282 22.4899 18.6982 21.7964 19.2419 21.252C19.7856 20.7075 20.4786 20.3366 21.2331 20.1861C21.9877 20.0356 22.77 20.1123 23.4809 20.4065C24.1919 20.7007 24.7996 21.1991 25.2272 21.8388C25.6548 22.4785 25.883 23.2307 25.883 24.0001C25.8837 24.5106 25.7838 25.0162 25.589 25.488C25.3941 25.9598 25.1081 26.3886 24.7474 26.7498C24.3867 27.111 23.9583 27.3976 23.4868 27.5931C23.0152 27.7886 22.5098 27.8893 21.9993 27.8893V27.8893Z"
        stroke="#3CA2F2" stroke-linecap="round" stroke-linejoin="round" stroke-width="1.25" />
</svg>
