<svg fill="none" height="50" viewBox="0 0 49 50" width="49" xmlns="http://www.w3.org/2000/svg">
    <rect fill="#F1F8FE" height="49.858" rx="24" width="48" x="0.5" />
    <g clip-path="url(#clip0_463_7357)">
        <path
            d="M27.0813 29.9853V15.2006C27.0813 15.0766 27.0311 14.9577 26.942 14.8701C26.8582 14.7757 26.7344 14.7252 26.6073 14.7339L24.7114 14.7399C24.4496 14.7399 24.2374 14.9489 24.2374 15.2066V29.9848C22.5813 30.7571 21.8746 32.7051 22.6589 34.3357C23.0996 35.2519 23.9474 35.9148 24.9536 36.1299C25.1841 36.1775 25.419 36.2017 25.6546 36.2023C27.487 36.2029 28.973 34.7408 28.9737 32.9365C28.9742 31.6756 28.2377 30.527 27.0813 29.9853ZM27.8943 33.7118C27.7486 34.1176 27.4917 34.4758 27.152 34.7466V34.7457C26.5903 35.1929 25.8531 35.3655 25.147 35.2152C23.8692 34.9362 23.063 33.69 23.3464 32.4318C23.5232 31.6471 24.0976 31.0071 24.8669 30.7381C25.0572 30.6731 25.1849 30.4968 25.1854 30.2985V15.6719L26.1334 15.6673V30.2985C26.1335 30.497 26.2611 30.6737 26.4514 30.739C27.6836 31.1676 28.3295 32.4986 27.8943 33.7118Z"
            fill="#2293F0" />
        <path
            d="M30.851 29.6652C30.3696 28.9234 29.73 28.2936 28.9766 27.8196V25.0011H30.3985C30.6603 25.0011 30.8725 24.7922 30.8725 24.5344C30.8725 24.2767 30.6603 24.0677 30.3985 24.0677H28.9766V23.1343H30.3985C30.6603 23.1343 30.8725 22.9254 30.8725 22.6676C30.8725 22.4099 30.6603 22.2009 30.3985 22.2009H28.9766V21.2675H30.3985C30.6603 21.2675 30.8725 21.0585 30.8725 20.8008C30.8725 20.5431 30.6603 20.3341 30.3985 20.3341H28.9766V19.4007H30.3985C30.6603 19.4007 30.8725 19.1917 30.8725 18.934C30.8725 18.6762 30.6603 18.4673 30.3985 18.4673H28.9766V17.5339H30.3985C30.6603 17.5339 30.8725 17.3249 30.8725 17.0672C30.8725 16.8094 30.6603 16.6005 30.3985 16.6005H28.9766V14.2669C28.9745 12.4635 27.4902 11.002 25.6587 11C23.8271 11.002 22.3429 12.4635 22.3408 14.2669V27.8196C19.4732 29.6238 18.634 33.3755 20.4664 36.199C22.2988 39.0226 26.109 39.8489 28.9766 38.0446C31.8442 36.2403 32.6834 32.4887 30.851 29.6652ZM25.6587 38.0689C22.7792 38.0723 20.442 35.7766 20.4385 32.9414C20.4363 31.1024 21.4331 29.4027 23.0518 28.4856C23.1984 28.4022 23.2888 28.2481 23.2888 28.0814V14.2669C23.2903 12.9788 24.3505 11.9349 25.6587 11.9334C26.9666 11.9357 28.0262 12.9791 28.0286 14.2669V28.0814C28.0286 28.2481 28.119 28.4022 28.2656 28.4856C30.7614 29.8997 31.6203 33.0383 30.184 35.4958C29.2525 37.0896 27.5263 38.0711 25.6587 38.0689Z"
            fill="#2293F0" />
    </g>
    <defs>
        <clipPath id="clip0_463_7357">
            <rect fill="white" height="28" transform="translate(10.5 11)" width="30" />
        </clipPath>
    </defs>
</svg>
