<svg width="12" height="10" viewBox="0 0 12 10" fill="none" xmlns="http://www.w3.org/2000/svg">
<g clip-path="url(#clip0_181_138)">
<path d="M6.58069 6.78054V1.50027C6.58069 1.456 6.56229 1.41354 6.5296 1.38226C6.49888 1.34853 6.45348 1.33051 6.4069 1.33359L5.71172 1.33576C5.61574 1.33576 5.53793 1.41039 5.53793 1.50244V6.78037C4.93069 7.05618 4.67158 7.75188 4.95915 8.33424C5.12073 8.66148 5.43158 8.89823 5.80053 8.97505C5.88506 8.99203 5.9712 9.00067 6.05757 9.00088C6.72946 9.00111 7.27433 8.47892 7.27457 7.83454C7.27474 7.38423 7.00469 6.97401 6.58069 6.78054ZM6.87877 8.11143C6.82537 8.25636 6.73118 8.38429 6.60661 8.48101V8.48067C6.40064 8.64037 6.13035 8.70202 5.87146 8.64835C5.40293 8.5487 5.10733 8.10364 5.21124 7.65427C5.27604 7.37402 5.48668 7.14546 5.76875 7.04939C5.8385 7.02616 5.88534 6.9632 5.88554 6.89238V1.66862L6.23313 1.66695V6.89238C6.23315 6.96328 6.27994 7.02639 6.34974 7.04972C6.80152 7.2028 7.03838 7.67815 6.87877 8.11143Z" fill="white"/>
<path d="M7.96228 6.66613C7.78577 6.40121 7.55125 6.17629 7.27501 6.00699V5.00041H7.79639C7.89237 5.00041 7.97019 4.92578 7.97019 4.83373C7.97019 4.74168 7.89237 4.66705 7.79639 4.66705H7.27501V4.33369H7.79639C7.89237 4.33369 7.97019 4.25906 7.97019 4.16701C7.97019 4.07496 7.89237 4.00033 7.79639 4.00033H7.27501V3.66697H7.79639C7.89237 3.66697 7.97019 3.59233 7.97019 3.50028C7.97019 3.40824 7.89237 3.3336 7.79639 3.3336H7.27501V3.00024H7.79639C7.89237 3.00024 7.97019 2.92561 7.97019 2.83356C7.97019 2.74151 7.89237 2.66688 7.79639 2.66688H7.27501V2.33352H7.79639C7.89237 2.33352 7.97019 2.25889 7.97019 2.16684C7.97019 2.07479 7.89237 2.00016 7.79639 2.00016H7.27501V1.16676C7.27425 0.522688 6.73001 0.000729226 6.05845 0C5.38688 0.000729226 4.84264 0.522688 4.84188 1.16676V6.00699C3.79043 6.65137 3.48272 7.99123 4.15461 8.99965C4.8265 10.0081 6.22355 10.3032 7.27501 9.65879C8.32647 9.01438 8.63417 7.67452 7.96228 6.66613ZM6.05845 9.66745C5.00262 9.66868 4.14566 8.8488 4.14438 7.8362C4.14356 7.17944 4.50905 6.57241 5.10258 6.24484C5.15634 6.21507 5.18947 6.16004 5.18947 6.1005V1.16676C5.19004 0.706724 5.57877 0.333902 6.05845 0.33336C6.53801 0.334194 6.92655 0.706828 6.92742 1.16676V6.1005C6.92742 6.16004 6.96055 6.21507 7.01432 6.24484C7.92943 6.7499 8.24437 7.87083 7.71773 8.74848C7.37618 9.31772 6.74324 9.66825 6.05845 9.66745Z" fill="white"/>
</g>
<defs>
<clipPath id="clip0_181_138">
<rect width="11" height="10" fill="white" transform="translate(0.5)"/>
</clipPath>
</defs>
</svg>
