<svg fill="none" height="47" viewBox="0 0 45 47" width="45" xmlns="http://www.w3.org/2000/svg">
    <rect fill="#F1F8FE" height="47" rx="22.5" width="45" />
    <path
        d="M22 14.456L29.5833 17.8252V22.9168C29.5833 27.8135 26.355 32.331 22 33.6743C17.645 32.331 14.4167 27.8135 14.4167 22.9168V17.8252L22 14.456ZM22 12.0835L12.25 16.4168V22.9168C12.25 28.9293 16.41 34.5518 22 35.9168C27.59 34.5518 31.75 28.9293 31.75 22.9168V16.4168L22 12.0835ZM20.9167 18.5835H23.0833V20.7502H20.9167V18.5835ZM20.9167 22.9168H23.0833V29.4168H20.9167V22.9168Z"
        fill="#3CA2F2" stroke="#F1F8FE" stroke-width="0.75" />
    <path d="M23.0827 18.5835H20.916V20.7502H23.0827V18.5835Z" fill="#3CA2F2" />
    <path d="M23.0827 22.9168H20.916V29.4168H23.0827V22.9168Z" fill="#3CA2F2" />
</svg>
